<mxfile host="app.diagrams.net" modified="2022-04-19T19:07:43.096Z" agent="5.0 (X11)" etag="w4K_YYdnih1_d_f5fJE_" version="17.4.5" type="github" pages="3">
  <diagram id="4ETvsMQ5utifz71vqkLE" name="Page-1">
    <mxGraphModel dx="832" dy="452" grid="1" gridSize="10" guides="1" tooltips="1" connect="1" arrows="1" fold="1" page="1" pageScale="1" pageWidth="650" pageHeight="400" background="#283618" math="0" shadow="0">
      <root>
        <mxCell id="0" />
        <mxCell id="1" parent="0" />
        <mxCell id="9WcCoiKOQw3WZdgEe0-8-2" style="edgeStyle=none;rounded=0;orthogonalLoop=1;jettySize=auto;html=1;exitX=1;exitY=0;exitDx=0;exitDy=0;entryX=0;entryY=1;entryDx=0;entryDy=0;endArrow=none;endFill=0;labelBackgroundColor=#283618;strokeColor=#DDA15E;fontColor=#FEFAE0;strokeWidth=2;shadow=1;" edge="1" parent="1" source="9WcCoiKOQw3WZdgEe0-8-4" target="9WcCoiKOQw3WZdgEe0-8-9">
          <mxGeometry relative="1" as="geometry" />
        </mxCell>
        <mxCell id="9WcCoiKOQw3WZdgEe0-8-3" style="edgeStyle=none;rounded=0;orthogonalLoop=1;jettySize=auto;html=1;exitX=1;exitY=1;exitDx=0;exitDy=0;entryX=0;entryY=0;entryDx=0;entryDy=0;endArrow=none;endFill=0;labelBackgroundColor=#283618;strokeColor=#DDA15E;fontColor=#FEFAE0;strokeWidth=2;shadow=1;" edge="1" parent="1" source="9WcCoiKOQw3WZdgEe0-8-4" target="9WcCoiKOQw3WZdgEe0-8-11">
          <mxGeometry relative="1" as="geometry" />
        </mxCell>
        <mxCell id="9WcCoiKOQw3WZdgEe0-8-4" value="0" style="ellipse;whiteSpace=wrap;html=1;aspect=fixed;fillColor=#BC6C25;strokeColor=#DDA15E;fontColor=#FEFAE0;strokeWidth=2;shadow=1;" vertex="1" parent="1">
          <mxGeometry x="170" y="160" width="40" height="40" as="geometry" />
        </mxCell>
        <mxCell id="9WcCoiKOQw3WZdgEe0-8-5" style="edgeStyle=none;rounded=0;orthogonalLoop=1;jettySize=auto;html=1;exitX=1;exitY=0;exitDx=0;exitDy=0;entryX=0;entryY=1;entryDx=0;entryDy=0;endArrow=none;endFill=0;labelBackgroundColor=#283618;strokeColor=#DDA15E;fontColor=#FEFAE0;strokeWidth=2;shadow=1;" edge="1" parent="1" source="9WcCoiKOQw3WZdgEe0-8-7" target="9WcCoiKOQw3WZdgEe0-8-13">
          <mxGeometry relative="1" as="geometry" />
        </mxCell>
        <mxCell id="9WcCoiKOQw3WZdgEe0-8-6" style="edgeStyle=none;rounded=0;orthogonalLoop=1;jettySize=auto;html=1;exitX=1;exitY=1;exitDx=0;exitDy=0;entryX=0;entryY=0;entryDx=0;entryDy=0;endArrow=none;endFill=0;labelBackgroundColor=#283618;strokeColor=#DDA15E;fontColor=#FEFAE0;strokeWidth=2;shadow=1;" edge="1" parent="1" source="9WcCoiKOQw3WZdgEe0-8-7" target="9WcCoiKOQw3WZdgEe0-8-15">
          <mxGeometry relative="1" as="geometry" />
        </mxCell>
        <mxCell id="9WcCoiKOQw3WZdgEe0-8-7" value="3" style="ellipse;whiteSpace=wrap;html=1;aspect=fixed;fillColor=#BC6C25;strokeColor=#DDA15E;fontColor=#FEFAE0;strokeWidth=2;shadow=1;" vertex="1" parent="1">
          <mxGeometry x="350" y="160" width="40" height="40" as="geometry" />
        </mxCell>
        <mxCell id="9WcCoiKOQw3WZdgEe0-8-8" style="edgeStyle=none;rounded=0;orthogonalLoop=1;jettySize=auto;html=1;exitX=1;exitY=1;exitDx=0;exitDy=0;entryX=0;entryY=0;entryDx=0;entryDy=0;endArrow=none;endFill=0;labelBackgroundColor=#283618;strokeColor=#DDA15E;fontColor=#FEFAE0;strokeWidth=2;shadow=1;" edge="1" parent="1" source="9WcCoiKOQw3WZdgEe0-8-9" target="9WcCoiKOQw3WZdgEe0-8-7">
          <mxGeometry relative="1" as="geometry" />
        </mxCell>
        <mxCell id="9WcCoiKOQw3WZdgEe0-8-9" value="1" style="ellipse;whiteSpace=wrap;html=1;aspect=fixed;fillColor=#BC6C25;strokeColor=#DDA15E;fontColor=#FEFAE0;strokeWidth=2;shadow=1;" vertex="1" parent="1">
          <mxGeometry x="260" y="80" width="40" height="40" as="geometry" />
        </mxCell>
        <mxCell id="9WcCoiKOQw3WZdgEe0-8-10" style="edgeStyle=none;rounded=0;orthogonalLoop=1;jettySize=auto;html=1;exitX=1;exitY=0;exitDx=0;exitDy=0;entryX=0;entryY=1;entryDx=0;entryDy=0;endArrow=none;endFill=0;labelBackgroundColor=#283618;strokeColor=#DDA15E;fontColor=#FEFAE0;strokeWidth=2;shadow=1;" edge="1" parent="1" source="9WcCoiKOQw3WZdgEe0-8-11" target="9WcCoiKOQw3WZdgEe0-8-7">
          <mxGeometry relative="1" as="geometry" />
        </mxCell>
        <mxCell id="9WcCoiKOQw3WZdgEe0-8-11" value="2" style="ellipse;whiteSpace=wrap;html=1;aspect=fixed;fillColor=#BC6C25;strokeColor=#DDA15E;fontColor=#FEFAE0;strokeWidth=2;shadow=1;" vertex="1" parent="1">
          <mxGeometry x="260" y="240" width="40" height="40" as="geometry" />
        </mxCell>
        <mxCell id="9WcCoiKOQw3WZdgEe0-8-12" style="edgeStyle=none;rounded=0;orthogonalLoop=1;jettySize=auto;html=1;exitX=1;exitY=1;exitDx=0;exitDy=0;entryX=0;entryY=0;entryDx=0;entryDy=0;endArrow=none;endFill=0;labelBackgroundColor=#283618;strokeColor=#DDA15E;fontColor=#FEFAE0;strokeWidth=2;shadow=1;" edge="1" parent="1" source="9WcCoiKOQw3WZdgEe0-8-13" target="9WcCoiKOQw3WZdgEe0-8-18">
          <mxGeometry relative="1" as="geometry" />
        </mxCell>
        <mxCell id="9WcCoiKOQw3WZdgEe0-8-13" value="4" style="ellipse;whiteSpace=wrap;html=1;aspect=fixed;fillColor=#BC6C25;strokeColor=#DDA15E;fontColor=#FEFAE0;strokeWidth=2;shadow=1;" vertex="1" parent="1">
          <mxGeometry x="450" y="100" width="40" height="40" as="geometry" />
        </mxCell>
        <mxCell id="9WcCoiKOQw3WZdgEe0-8-14" style="edgeStyle=none;rounded=0;orthogonalLoop=1;jettySize=auto;html=1;exitX=1;exitY=0;exitDx=0;exitDy=0;entryX=0;entryY=1;entryDx=0;entryDy=0;endArrow=none;endFill=0;labelBackgroundColor=#283618;strokeColor=#DDA15E;fontColor=#FEFAE0;strokeWidth=2;shadow=1;" edge="1" parent="1" source="9WcCoiKOQw3WZdgEe0-8-15" target="9WcCoiKOQw3WZdgEe0-8-18">
          <mxGeometry relative="1" as="geometry" />
        </mxCell>
        <mxCell id="9WcCoiKOQw3WZdgEe0-8-15" value="5" style="ellipse;whiteSpace=wrap;html=1;aspect=fixed;fillColor=#BC6C25;strokeColor=#DDA15E;fontColor=#FEFAE0;strokeWidth=2;shadow=1;" vertex="1" parent="1">
          <mxGeometry x="450" y="220" width="40" height="40" as="geometry" />
        </mxCell>
        <mxCell id="9WcCoiKOQw3WZdgEe0-8-16" style="edgeStyle=none;rounded=0;orthogonalLoop=1;jettySize=auto;html=1;exitX=1;exitY=0;exitDx=0;exitDy=0;entryX=0;entryY=1;entryDx=0;entryDy=0;endArrow=none;endFill=0;labelBackgroundColor=#283618;strokeColor=#DDA15E;fontColor=#FEFAE0;strokeWidth=2;shadow=1;" edge="1" parent="1" source="9WcCoiKOQw3WZdgEe0-8-18" target="9WcCoiKOQw3WZdgEe0-8-21">
          <mxGeometry relative="1" as="geometry" />
        </mxCell>
        <mxCell id="9WcCoiKOQw3WZdgEe0-8-17" style="edgeStyle=none;rounded=0;orthogonalLoop=1;jettySize=auto;html=1;exitX=1;exitY=1;exitDx=0;exitDy=0;entryX=0;entryY=0;entryDx=0;entryDy=0;endArrow=none;endFill=0;labelBackgroundColor=#283618;strokeColor=#DDA15E;fontColor=#FEFAE0;strokeWidth=2;shadow=1;" edge="1" parent="1" source="9WcCoiKOQw3WZdgEe0-8-18" target="9WcCoiKOQw3WZdgEe0-8-23">
          <mxGeometry relative="1" as="geometry" />
        </mxCell>
        <mxCell id="9WcCoiKOQw3WZdgEe0-8-18" value="6" style="ellipse;whiteSpace=wrap;html=1;aspect=fixed;fillColor=#BC6C25;strokeColor=#DDA15E;fontColor=#FEFAE0;strokeWidth=2;shadow=1;" vertex="1" parent="1">
          <mxGeometry x="540" y="160" width="40" height="40" as="geometry" />
        </mxCell>
        <mxCell id="9WcCoiKOQw3WZdgEe0-8-19" value="9" style="ellipse;whiteSpace=wrap;html=1;aspect=fixed;fillColor=#BC6C25;strokeColor=#DDA15E;fontColor=#FEFAE0;strokeWidth=2;shadow=1;" vertex="1" parent="1">
          <mxGeometry x="710" y="160" width="40" height="40" as="geometry" />
        </mxCell>
        <mxCell id="9WcCoiKOQw3WZdgEe0-8-20" style="edgeStyle=none;rounded=0;orthogonalLoop=1;jettySize=auto;html=1;exitX=1;exitY=1;exitDx=0;exitDy=0;entryX=0;entryY=0;entryDx=0;entryDy=0;endArrow=none;endFill=0;labelBackgroundColor=#283618;strokeColor=#DDA15E;fontColor=#FEFAE0;strokeWidth=2;shadow=1;" edge="1" parent="1" source="9WcCoiKOQw3WZdgEe0-8-21" target="9WcCoiKOQw3WZdgEe0-8-19">
          <mxGeometry relative="1" as="geometry" />
        </mxCell>
        <mxCell id="9WcCoiKOQw3WZdgEe0-8-21" value="7" style="ellipse;whiteSpace=wrap;html=1;aspect=fixed;fillColor=#BC6C25;strokeColor=#DDA15E;fontColor=#FEFAE0;strokeWidth=2;shadow=1;" vertex="1" parent="1">
          <mxGeometry x="630" y="80" width="40" height="40" as="geometry" />
        </mxCell>
        <mxCell id="9WcCoiKOQw3WZdgEe0-8-22" style="edgeStyle=none;rounded=0;orthogonalLoop=1;jettySize=auto;html=1;exitX=1;exitY=0;exitDx=0;exitDy=0;entryX=0;entryY=1;entryDx=0;entryDy=0;endArrow=none;endFill=0;labelBackgroundColor=#283618;strokeColor=#DDA15E;fontColor=#FEFAE0;strokeWidth=2;shadow=1;" edge="1" parent="1" source="9WcCoiKOQw3WZdgEe0-8-23" target="9WcCoiKOQw3WZdgEe0-8-19">
          <mxGeometry relative="1" as="geometry" />
        </mxCell>
        <mxCell id="9WcCoiKOQw3WZdgEe0-8-23" value="8" style="ellipse;whiteSpace=wrap;html=1;aspect=fixed;fillColor=#BC6C25;strokeColor=#DDA15E;fontColor=#FEFAE0;strokeWidth=2;shadow=1;" vertex="1" parent="1">
          <mxGeometry x="630" y="240" width="40" height="40" as="geometry" />
        </mxCell>
        <mxCell id="9WcCoiKOQw3WZdgEe0-8-24" value="1" style="text;html=1;align=center;verticalAlign=middle;resizable=0;points=[];autosize=1;strokeColor=none;fillColor=none;fontStyle=1;fontColor=#FEFAE0;strokeWidth=2;shadow=1;" vertex="1" parent="1">
          <mxGeometry x="220" y="120" width="20" height="20" as="geometry" />
        </mxCell>
        <mxCell id="9WcCoiKOQw3WZdgEe0-8-25" value="2" style="text;html=1;align=center;verticalAlign=middle;resizable=0;points=[];autosize=1;strokeColor=none;fillColor=none;fontStyle=1;fontColor=#FEFAE0;strokeWidth=2;shadow=1;" vertex="1" parent="1">
          <mxGeometry x="220" y="220" width="20" height="20" as="geometry" />
        </mxCell>
        <mxCell id="9WcCoiKOQw3WZdgEe0-8-26" value="3" style="text;html=1;align=center;verticalAlign=middle;resizable=0;points=[];autosize=1;strokeColor=none;fillColor=none;fontStyle=1;fontColor=#FEFAE0;strokeWidth=2;shadow=1;" vertex="1" parent="1">
          <mxGeometry x="330" y="120" width="20" height="20" as="geometry" />
        </mxCell>
        <mxCell id="9WcCoiKOQw3WZdgEe0-8-27" value="2" style="text;html=1;align=center;verticalAlign=middle;resizable=0;points=[];autosize=1;strokeColor=none;fillColor=none;fontStyle=1;fontColor=#FEFAE0;strokeWidth=2;shadow=1;" vertex="1" parent="1">
          <mxGeometry x="325" y="220" width="20" height="20" as="geometry" />
        </mxCell>
        <mxCell id="9WcCoiKOQw3WZdgEe0-8-28" value="3" style="text;html=1;align=center;verticalAlign=middle;resizable=0;points=[];autosize=1;strokeColor=none;fillColor=none;fontStyle=1;fontColor=#FEFAE0;strokeWidth=2;shadow=1;" vertex="1" parent="1">
          <mxGeometry x="580" y="120" width="20" height="20" as="geometry" />
        </mxCell>
        <mxCell id="9WcCoiKOQw3WZdgEe0-8-29" value="2" style="text;html=1;align=center;verticalAlign=middle;resizable=0;points=[];autosize=1;strokeColor=none;fillColor=none;fontStyle=1;fontColor=#FEFAE0;strokeWidth=2;shadow=1;" vertex="1" parent="1">
          <mxGeometry x="680" y="120" width="20" height="20" as="geometry" />
        </mxCell>
        <mxCell id="9WcCoiKOQw3WZdgEe0-8-30" value="1" style="text;html=1;align=center;verticalAlign=middle;resizable=0;points=[];autosize=1;strokeColor=none;fillColor=none;fontStyle=1;fontColor=#FEFAE0;strokeWidth=2;shadow=1;" vertex="1" parent="1">
          <mxGeometry x="590" y="220" width="20" height="20" as="geometry" />
        </mxCell>
        <mxCell id="9WcCoiKOQw3WZdgEe0-8-31" value="1" style="text;html=1;align=center;verticalAlign=middle;resizable=0;points=[];autosize=1;strokeColor=none;fillColor=none;fontStyle=1;fontColor=#FEFAE0;strokeWidth=2;shadow=1;" vertex="1" parent="1">
          <mxGeometry x="680" y="220" width="20" height="20" as="geometry" />
        </mxCell>
        <mxCell id="9WcCoiKOQw3WZdgEe0-8-32" value="5" style="text;html=1;align=center;verticalAlign=middle;resizable=0;points=[];autosize=1;strokeColor=none;fillColor=none;fontStyle=1;fontColor=#FEFAE0;strokeWidth=2;shadow=1;" vertex="1" parent="1">
          <mxGeometry x="400" y="130" width="20" height="20" as="geometry" />
        </mxCell>
        <mxCell id="9WcCoiKOQw3WZdgEe0-8-33" value="7" style="text;html=1;align=center;verticalAlign=middle;resizable=0;points=[];autosize=1;strokeColor=none;fillColor=none;fontStyle=1;fontColor=#FEFAE0;strokeWidth=2;shadow=1;" vertex="1" parent="1">
          <mxGeometry x="510" y="130" width="20" height="20" as="geometry" />
        </mxCell>
        <mxCell id="9WcCoiKOQw3WZdgEe0-8-34" value="6" style="text;html=1;align=center;verticalAlign=middle;resizable=0;points=[];autosize=1;strokeColor=none;fillColor=none;fontStyle=1;fontColor=#FEFAE0;strokeWidth=2;shadow=1;" vertex="1" parent="1">
          <mxGeometry x="410" y="210" width="20" height="20" as="geometry" />
        </mxCell>
        <mxCell id="9WcCoiKOQw3WZdgEe0-8-35" value="8" style="text;html=1;align=center;verticalAlign=middle;resizable=0;points=[];autosize=1;strokeColor=none;fillColor=none;fontStyle=1;fontColor=#FEFAE0;strokeWidth=2;shadow=1;" vertex="1" parent="1">
          <mxGeometry x="510" y="210" width="20" height="20" as="geometry" />
        </mxCell>
        <mxCell id="9WcCoiKOQw3WZdgEe0-8-36" value="cstutorial.org" style="text;html=1;align=center;verticalAlign=middle;resizable=0;points=[];autosize=1;strokeColor=none;fillColor=none;fontColor=#FEFAE0;" vertex="1" parent="1">
          <mxGeometry x="640" y="280" width="100" height="20" as="geometry" />
        </mxCell>
      </root>
    </mxGraphModel>
  </diagram>
  <diagram id="p_GCvNY7hFD3LqBlirZl" name="Page-2">
    <mxGraphModel dx="832" dy="452" grid="1" gridSize="10" guides="1" tooltips="1" connect="1" arrows="1" fold="1" page="1" pageScale="1" pageWidth="650" pageHeight="400" background="#283618" math="0" shadow="0">
      <root>
        <mxCell id="0" />
        <mxCell id="1" parent="0" />
        <mxCell id="OpFeEpXULnJHYl8mJ-9n-1" style="edgeStyle=none;rounded=0;orthogonalLoop=1;jettySize=auto;html=1;exitX=1;exitY=0;exitDx=0;exitDy=0;entryX=0;entryY=1;entryDx=0;entryDy=0;endArrow=none;endFill=0;labelBackgroundColor=#283618;strokeColor=#DDA15E;fontColor=#FEFAE0;strokeWidth=2;shadow=1;" edge="1" parent="1" source="OpFeEpXULnJHYl8mJ-9n-3" target="OpFeEpXULnJHYl8mJ-9n-8">
          <mxGeometry relative="1" as="geometry" />
        </mxCell>
        <mxCell id="OpFeEpXULnJHYl8mJ-9n-2" style="edgeStyle=none;rounded=0;orthogonalLoop=1;jettySize=auto;html=1;exitX=1;exitY=1;exitDx=0;exitDy=0;entryX=0;entryY=0;entryDx=0;entryDy=0;endArrow=none;endFill=0;labelBackgroundColor=#283618;strokeColor=#DDA15E;fontColor=#FEFAE0;strokeWidth=2;shadow=1;textOpacity=0;fillOpacity=0;strokeOpacity=0;" edge="1" parent="1" source="OpFeEpXULnJHYl8mJ-9n-3" target="OpFeEpXULnJHYl8mJ-9n-10">
          <mxGeometry relative="1" as="geometry" />
        </mxCell>
        <mxCell id="OpFeEpXULnJHYl8mJ-9n-3" value="0" style="ellipse;whiteSpace=wrap;html=1;aspect=fixed;fillColor=#BC6C25;strokeColor=#DDA15E;fontColor=#FEFAE0;strokeWidth=2;shadow=1;" vertex="1" parent="1">
          <mxGeometry x="170" y="160" width="40" height="40" as="geometry" />
        </mxCell>
        <mxCell id="OpFeEpXULnJHYl8mJ-9n-4" style="edgeStyle=none;rounded=0;orthogonalLoop=1;jettySize=auto;html=1;exitX=1;exitY=0;exitDx=0;exitDy=0;entryX=0;entryY=1;entryDx=0;entryDy=0;endArrow=none;endFill=0;labelBackgroundColor=#283618;strokeColor=#DDA15E;fontColor=#FEFAE0;strokeWidth=2;shadow=1;textOpacity=0;fillOpacity=0;strokeOpacity=0;" edge="1" parent="1" source="OpFeEpXULnJHYl8mJ-9n-6" target="OpFeEpXULnJHYl8mJ-9n-12">
          <mxGeometry relative="1" as="geometry" />
        </mxCell>
        <mxCell id="OpFeEpXULnJHYl8mJ-9n-5" style="edgeStyle=none;rounded=0;orthogonalLoop=1;jettySize=auto;html=1;exitX=1;exitY=1;exitDx=0;exitDy=0;entryX=0;entryY=0;entryDx=0;entryDy=0;endArrow=none;endFill=0;labelBackgroundColor=#283618;strokeColor=#DDA15E;fontColor=#FEFAE0;strokeWidth=2;shadow=1;textOpacity=0;fillOpacity=0;strokeOpacity=0;" edge="1" parent="1" source="OpFeEpXULnJHYl8mJ-9n-6" target="OpFeEpXULnJHYl8mJ-9n-14">
          <mxGeometry relative="1" as="geometry" />
        </mxCell>
        <mxCell id="OpFeEpXULnJHYl8mJ-9n-6" value="3" style="ellipse;whiteSpace=wrap;html=1;aspect=fixed;fillColor=#BC6C25;strokeColor=#DDA15E;fontColor=#FEFAE0;strokeWidth=2;shadow=1;textOpacity=0;fillOpacity=0;strokeOpacity=0;" vertex="1" parent="1">
          <mxGeometry x="350" y="160" width="40" height="40" as="geometry" />
        </mxCell>
        <mxCell id="OpFeEpXULnJHYl8mJ-9n-7" style="edgeStyle=none;rounded=0;orthogonalLoop=1;jettySize=auto;html=1;exitX=1;exitY=1;exitDx=0;exitDy=0;entryX=0;entryY=0;entryDx=0;entryDy=0;endArrow=none;endFill=0;labelBackgroundColor=#283618;strokeColor=#DDA15E;fontColor=#FEFAE0;strokeWidth=2;shadow=1;textOpacity=0;fillOpacity=0;strokeOpacity=0;" edge="1" parent="1" source="OpFeEpXULnJHYl8mJ-9n-8" target="OpFeEpXULnJHYl8mJ-9n-6">
          <mxGeometry relative="1" as="geometry" />
        </mxCell>
        <mxCell id="OpFeEpXULnJHYl8mJ-9n-8" value="1" style="ellipse;whiteSpace=wrap;html=1;aspect=fixed;fillColor=#BC6C25;strokeColor=#DDA15E;fontColor=#FEFAE0;strokeWidth=2;shadow=1;" vertex="1" parent="1">
          <mxGeometry x="260" y="80" width="40" height="40" as="geometry" />
        </mxCell>
        <mxCell id="OpFeEpXULnJHYl8mJ-9n-9" style="edgeStyle=none;rounded=0;orthogonalLoop=1;jettySize=auto;html=1;exitX=1;exitY=0;exitDx=0;exitDy=0;entryX=0;entryY=1;entryDx=0;entryDy=0;endArrow=none;endFill=0;labelBackgroundColor=#283618;strokeColor=#DDA15E;fontColor=#FEFAE0;strokeWidth=2;shadow=1;textOpacity=0;fillOpacity=0;strokeOpacity=0;" edge="1" parent="1" source="OpFeEpXULnJHYl8mJ-9n-10" target="OpFeEpXULnJHYl8mJ-9n-6">
          <mxGeometry relative="1" as="geometry" />
        </mxCell>
        <mxCell id="OpFeEpXULnJHYl8mJ-9n-10" value="2" style="ellipse;whiteSpace=wrap;html=1;aspect=fixed;fillColor=#BC6C25;strokeColor=#DDA15E;fontColor=#FEFAE0;strokeWidth=2;shadow=1;textOpacity=0;fillOpacity=0;strokeOpacity=0;" vertex="1" parent="1">
          <mxGeometry x="260" y="240" width="40" height="40" as="geometry" />
        </mxCell>
        <mxCell id="OpFeEpXULnJHYl8mJ-9n-11" style="edgeStyle=none;rounded=0;orthogonalLoop=1;jettySize=auto;html=1;exitX=1;exitY=1;exitDx=0;exitDy=0;entryX=0;entryY=0;entryDx=0;entryDy=0;endArrow=none;endFill=0;labelBackgroundColor=#283618;strokeColor=#DDA15E;fontColor=#FEFAE0;strokeWidth=2;shadow=1;textOpacity=0;fillOpacity=0;strokeOpacity=0;" edge="1" parent="1" source="OpFeEpXULnJHYl8mJ-9n-12" target="OpFeEpXULnJHYl8mJ-9n-17">
          <mxGeometry relative="1" as="geometry" />
        </mxCell>
        <mxCell id="OpFeEpXULnJHYl8mJ-9n-12" value="4" style="ellipse;whiteSpace=wrap;html=1;aspect=fixed;fillColor=#BC6C25;strokeColor=#DDA15E;fontColor=#FEFAE0;strokeWidth=2;shadow=1;textOpacity=0;fillOpacity=0;strokeOpacity=0;" vertex="1" parent="1">
          <mxGeometry x="450" y="100" width="40" height="40" as="geometry" />
        </mxCell>
        <mxCell id="OpFeEpXULnJHYl8mJ-9n-13" style="edgeStyle=none;rounded=0;orthogonalLoop=1;jettySize=auto;html=1;exitX=1;exitY=0;exitDx=0;exitDy=0;entryX=0;entryY=1;entryDx=0;entryDy=0;endArrow=none;endFill=0;labelBackgroundColor=#283618;strokeColor=#DDA15E;fontColor=#FEFAE0;strokeWidth=2;shadow=1;textOpacity=0;fillOpacity=0;strokeOpacity=0;" edge="1" parent="1" source="OpFeEpXULnJHYl8mJ-9n-14" target="OpFeEpXULnJHYl8mJ-9n-17">
          <mxGeometry relative="1" as="geometry" />
        </mxCell>
        <mxCell id="OpFeEpXULnJHYl8mJ-9n-14" value="5" style="ellipse;whiteSpace=wrap;html=1;aspect=fixed;fillColor=#BC6C25;strokeColor=#DDA15E;fontColor=#FEFAE0;strokeWidth=2;shadow=1;textOpacity=0;fillOpacity=0;strokeOpacity=0;" vertex="1" parent="1">
          <mxGeometry x="450" y="220" width="40" height="40" as="geometry" />
        </mxCell>
        <mxCell id="OpFeEpXULnJHYl8mJ-9n-15" style="edgeStyle=none;rounded=0;orthogonalLoop=1;jettySize=auto;html=1;exitX=1;exitY=0;exitDx=0;exitDy=0;entryX=0;entryY=1;entryDx=0;entryDy=0;endArrow=none;endFill=0;labelBackgroundColor=#283618;strokeColor=#DDA15E;fontColor=#FEFAE0;strokeWidth=2;shadow=1;textOpacity=0;fillOpacity=0;strokeOpacity=0;" edge="1" parent="1" source="OpFeEpXULnJHYl8mJ-9n-17" target="OpFeEpXULnJHYl8mJ-9n-20">
          <mxGeometry relative="1" as="geometry" />
        </mxCell>
        <mxCell id="OpFeEpXULnJHYl8mJ-9n-16" style="edgeStyle=none;rounded=0;orthogonalLoop=1;jettySize=auto;html=1;exitX=1;exitY=1;exitDx=0;exitDy=0;entryX=0;entryY=0;entryDx=0;entryDy=0;endArrow=none;endFill=0;labelBackgroundColor=#283618;strokeColor=#DDA15E;fontColor=#FEFAE0;strokeWidth=2;shadow=1;textOpacity=0;fillOpacity=0;strokeOpacity=0;" edge="1" parent="1" source="OpFeEpXULnJHYl8mJ-9n-17" target="OpFeEpXULnJHYl8mJ-9n-22">
          <mxGeometry relative="1" as="geometry" />
        </mxCell>
        <mxCell id="OpFeEpXULnJHYl8mJ-9n-17" value="6" style="ellipse;whiteSpace=wrap;html=1;aspect=fixed;fillColor=#BC6C25;strokeColor=#DDA15E;fontColor=#FEFAE0;strokeWidth=2;shadow=1;textOpacity=0;fillOpacity=0;strokeOpacity=0;" vertex="1" parent="1">
          <mxGeometry x="540" y="160" width="40" height="40" as="geometry" />
        </mxCell>
        <mxCell id="OpFeEpXULnJHYl8mJ-9n-18" value="9" style="ellipse;whiteSpace=wrap;html=1;aspect=fixed;fillColor=#BC6C25;strokeColor=#DDA15E;fontColor=#FEFAE0;strokeWidth=2;shadow=1;textOpacity=0;fillOpacity=0;strokeOpacity=0;" vertex="1" parent="1">
          <mxGeometry x="710" y="160" width="40" height="40" as="geometry" />
        </mxCell>
        <mxCell id="OpFeEpXULnJHYl8mJ-9n-19" style="edgeStyle=none;rounded=0;orthogonalLoop=1;jettySize=auto;html=1;exitX=1;exitY=1;exitDx=0;exitDy=0;entryX=0;entryY=0;entryDx=0;entryDy=0;endArrow=none;endFill=0;labelBackgroundColor=#283618;strokeColor=#DDA15E;fontColor=#FEFAE0;strokeWidth=2;shadow=1;textOpacity=0;fillOpacity=0;strokeOpacity=0;" edge="1" parent="1" source="OpFeEpXULnJHYl8mJ-9n-20" target="OpFeEpXULnJHYl8mJ-9n-18">
          <mxGeometry relative="1" as="geometry" />
        </mxCell>
        <mxCell id="OpFeEpXULnJHYl8mJ-9n-20" value="7" style="ellipse;whiteSpace=wrap;html=1;aspect=fixed;fillColor=#BC6C25;strokeColor=#DDA15E;fontColor=#FEFAE0;strokeWidth=2;shadow=1;textOpacity=0;fillOpacity=0;strokeOpacity=0;" vertex="1" parent="1">
          <mxGeometry x="630" y="80" width="40" height="40" as="geometry" />
        </mxCell>
        <mxCell id="OpFeEpXULnJHYl8mJ-9n-21" style="edgeStyle=none;rounded=0;orthogonalLoop=1;jettySize=auto;html=1;exitX=1;exitY=0;exitDx=0;exitDy=0;entryX=0;entryY=1;entryDx=0;entryDy=0;endArrow=none;endFill=0;labelBackgroundColor=#283618;strokeColor=#DDA15E;fontColor=#FEFAE0;strokeWidth=2;shadow=1;textOpacity=0;fillOpacity=0;strokeOpacity=0;" edge="1" parent="1" source="OpFeEpXULnJHYl8mJ-9n-22" target="OpFeEpXULnJHYl8mJ-9n-18">
          <mxGeometry relative="1" as="geometry" />
        </mxCell>
        <mxCell id="OpFeEpXULnJHYl8mJ-9n-22" value="8" style="ellipse;whiteSpace=wrap;html=1;aspect=fixed;fillColor=#BC6C25;strokeColor=#DDA15E;fontColor=#FEFAE0;strokeWidth=2;shadow=1;textOpacity=0;fillOpacity=0;strokeOpacity=0;" vertex="1" parent="1">
          <mxGeometry x="630" y="240" width="40" height="40" as="geometry" />
        </mxCell>
        <mxCell id="OpFeEpXULnJHYl8mJ-9n-23" value="1" style="text;html=1;align=center;verticalAlign=middle;resizable=0;points=[];autosize=1;strokeColor=none;fillColor=none;fontStyle=1;fontColor=#FEFAE0;strokeWidth=2;shadow=1;" vertex="1" parent="1">
          <mxGeometry x="220" y="120" width="20" height="20" as="geometry" />
        </mxCell>
        <mxCell id="OpFeEpXULnJHYl8mJ-9n-24" value="2" style="text;html=1;align=center;verticalAlign=middle;resizable=0;points=[];autosize=1;strokeColor=none;fillColor=none;fontStyle=1;fontColor=#FEFAE0;strokeWidth=2;shadow=1;textOpacity=0;fillOpacity=0;strokeOpacity=0;" vertex="1" parent="1">
          <mxGeometry x="220" y="220" width="20" height="20" as="geometry" />
        </mxCell>
        <mxCell id="OpFeEpXULnJHYl8mJ-9n-25" value="3" style="text;html=1;align=center;verticalAlign=middle;resizable=0;points=[];autosize=1;strokeColor=none;fillColor=none;fontStyle=1;fontColor=#FEFAE0;strokeWidth=2;shadow=1;textOpacity=0;fillOpacity=0;strokeOpacity=0;" vertex="1" parent="1">
          <mxGeometry x="330" y="120" width="20" height="20" as="geometry" />
        </mxCell>
        <mxCell id="OpFeEpXULnJHYl8mJ-9n-26" value="2" style="text;html=1;align=center;verticalAlign=middle;resizable=0;points=[];autosize=1;strokeColor=none;fillColor=none;fontStyle=1;fontColor=#FEFAE0;strokeWidth=2;shadow=1;textOpacity=0;fillOpacity=0;strokeOpacity=0;" vertex="1" parent="1">
          <mxGeometry x="325" y="220" width="20" height="20" as="geometry" />
        </mxCell>
        <mxCell id="OpFeEpXULnJHYl8mJ-9n-27" value="3" style="text;html=1;align=center;verticalAlign=middle;resizable=0;points=[];autosize=1;strokeColor=none;fillColor=none;fontStyle=1;fontColor=#FEFAE0;strokeWidth=2;shadow=1;textOpacity=0;fillOpacity=0;strokeOpacity=0;" vertex="1" parent="1">
          <mxGeometry x="580" y="120" width="20" height="20" as="geometry" />
        </mxCell>
        <mxCell id="OpFeEpXULnJHYl8mJ-9n-28" value="2" style="text;html=1;align=center;verticalAlign=middle;resizable=0;points=[];autosize=1;strokeColor=none;fillColor=none;fontStyle=1;fontColor=#FEFAE0;strokeWidth=2;shadow=1;textOpacity=0;fillOpacity=0;strokeOpacity=0;" vertex="1" parent="1">
          <mxGeometry x="680" y="120" width="20" height="20" as="geometry" />
        </mxCell>
        <mxCell id="OpFeEpXULnJHYl8mJ-9n-29" value="1" style="text;html=1;align=center;verticalAlign=middle;resizable=0;points=[];autosize=1;strokeColor=none;fillColor=none;fontStyle=1;fontColor=#FEFAE0;strokeWidth=2;shadow=1;textOpacity=0;fillOpacity=0;strokeOpacity=0;" vertex="1" parent="1">
          <mxGeometry x="590" y="220" width="20" height="20" as="geometry" />
        </mxCell>
        <mxCell id="OpFeEpXULnJHYl8mJ-9n-30" value="1" style="text;html=1;align=center;verticalAlign=middle;resizable=0;points=[];autosize=1;strokeColor=none;fillColor=none;fontStyle=1;fontColor=#FEFAE0;strokeWidth=2;shadow=1;textOpacity=0;fillOpacity=0;strokeOpacity=0;" vertex="1" parent="1">
          <mxGeometry x="680" y="220" width="20" height="20" as="geometry" />
        </mxCell>
        <mxCell id="OpFeEpXULnJHYl8mJ-9n-31" value="5" style="text;html=1;align=center;verticalAlign=middle;resizable=0;points=[];autosize=1;strokeColor=none;fillColor=none;fontStyle=1;fontColor=#FEFAE0;strokeWidth=2;shadow=1;textOpacity=0;fillOpacity=0;strokeOpacity=0;" vertex="1" parent="1">
          <mxGeometry x="400" y="130" width="20" height="20" as="geometry" />
        </mxCell>
        <mxCell id="OpFeEpXULnJHYl8mJ-9n-32" value="7" style="text;html=1;align=center;verticalAlign=middle;resizable=0;points=[];autosize=1;strokeColor=none;fillColor=none;fontStyle=1;fontColor=#FEFAE0;strokeWidth=2;shadow=1;textOpacity=0;fillOpacity=0;strokeOpacity=0;" vertex="1" parent="1">
          <mxGeometry x="510" y="130" width="20" height="20" as="geometry" />
        </mxCell>
        <mxCell id="OpFeEpXULnJHYl8mJ-9n-33" value="6" style="text;html=1;align=center;verticalAlign=middle;resizable=0;points=[];autosize=1;strokeColor=none;fillColor=none;fontStyle=1;fontColor=#FEFAE0;strokeWidth=2;shadow=1;textOpacity=0;fillOpacity=0;strokeOpacity=0;" vertex="1" parent="1">
          <mxGeometry x="410" y="210" width="20" height="20" as="geometry" />
        </mxCell>
        <mxCell id="OpFeEpXULnJHYl8mJ-9n-34" value="8" style="text;html=1;align=center;verticalAlign=middle;resizable=0;points=[];autosize=1;strokeColor=none;fillColor=none;fontStyle=1;fontColor=#FEFAE0;strokeWidth=2;shadow=1;textOpacity=0;fillOpacity=0;strokeOpacity=0;" vertex="1" parent="1">
          <mxGeometry x="510" y="210" width="20" height="20" as="geometry" />
        </mxCell>
        <mxCell id="OpFeEpXULnJHYl8mJ-9n-35" value="cstutorial.org" style="text;html=1;align=center;verticalAlign=middle;resizable=0;points=[];autosize=1;strokeColor=none;fillColor=none;fontColor=#FEFAE0;" vertex="1" parent="1">
          <mxGeometry x="640" y="280" width="100" height="20" as="geometry" />
        </mxCell>
      </root>
    </mxGraphModel>
  </diagram>
  <diagram id="GKaWyxOpmWuoYvh7aUfI" name="Page-3">
    <mxGraphModel dx="832" dy="452" grid="1" gridSize="10" guides="1" tooltips="1" connect="1" arrows="1" fold="1" page="1" pageScale="1" pageWidth="650" pageHeight="400" background="#283618" math="0" shadow="0">
      <root>
        <mxCell id="0" />
        <mxCell id="1" parent="0" />
        <mxCell id="AMARJ9OEVqP7P04POJSn-1" style="edgeStyle=none;rounded=0;orthogonalLoop=1;jettySize=auto;html=1;exitX=1;exitY=0;exitDx=0;exitDy=0;entryX=0;entryY=1;entryDx=0;entryDy=0;endArrow=none;endFill=0;labelBackgroundColor=#283618;strokeColor=#DDA15E;fontColor=#FEFAE0;strokeWidth=2;shadow=1;" edge="1" parent="1" source="AMARJ9OEVqP7P04POJSn-3" target="AMARJ9OEVqP7P04POJSn-8">
          <mxGeometry relative="1" as="geometry" />
        </mxCell>
        <mxCell id="AMARJ9OEVqP7P04POJSn-2" style="edgeStyle=none;rounded=0;orthogonalLoop=1;jettySize=auto;html=1;exitX=1;exitY=1;exitDx=0;exitDy=0;entryX=0;entryY=0;entryDx=0;entryDy=0;endArrow=none;endFill=0;labelBackgroundColor=#283618;strokeColor=#DDA15E;fontColor=#FEFAE0;strokeWidth=2;shadow=1;fillOpacity=100;strokeOpacity=100;" edge="1" parent="1" source="AMARJ9OEVqP7P04POJSn-3" target="AMARJ9OEVqP7P04POJSn-10">
          <mxGeometry relative="1" as="geometry" />
        </mxCell>
        <mxCell id="AMARJ9OEVqP7P04POJSn-3" value="0" style="ellipse;whiteSpace=wrap;html=1;aspect=fixed;fillColor=#BC6C25;strokeColor=#DDA15E;fontColor=#FEFAE0;strokeWidth=2;shadow=1;" vertex="1" parent="1">
          <mxGeometry x="170" y="160" width="40" height="40" as="geometry" />
        </mxCell>
        <mxCell id="AMARJ9OEVqP7P04POJSn-4" style="edgeStyle=none;rounded=0;orthogonalLoop=1;jettySize=auto;html=1;exitX=1;exitY=0;exitDx=0;exitDy=0;entryX=0;entryY=1;entryDx=0;entryDy=0;endArrow=none;endFill=0;labelBackgroundColor=#283618;strokeColor=#DDA15E;fontColor=#FEFAE0;strokeWidth=2;shadow=1;fillOpacity=100;strokeOpacity=100;" edge="1" parent="1" source="AMARJ9OEVqP7P04POJSn-6" target="AMARJ9OEVqP7P04POJSn-12">
          <mxGeometry relative="1" as="geometry" />
        </mxCell>
        <mxCell id="AMARJ9OEVqP7P04POJSn-5" style="edgeStyle=none;rounded=0;orthogonalLoop=1;jettySize=auto;html=1;exitX=1;exitY=1;exitDx=0;exitDy=0;entryX=0;entryY=0;entryDx=0;entryDy=0;endArrow=none;endFill=0;labelBackgroundColor=#283618;strokeColor=#DDA15E;fontColor=#FEFAE0;strokeWidth=2;shadow=1;textOpacity=0;fillOpacity=0;strokeOpacity=0;" edge="1" parent="1" source="AMARJ9OEVqP7P04POJSn-6" target="AMARJ9OEVqP7P04POJSn-14">
          <mxGeometry relative="1" as="geometry" />
        </mxCell>
        <mxCell id="AMARJ9OEVqP7P04POJSn-6" value="3" style="ellipse;whiteSpace=wrap;html=1;aspect=fixed;fillColor=#BC6C25;strokeColor=#DDA15E;fontColor=#FEFAE0;strokeWidth=2;shadow=1;fillOpacity=100;strokeOpacity=100;" vertex="1" parent="1">
          <mxGeometry x="350" y="160" width="40" height="40" as="geometry" />
        </mxCell>
        <mxCell id="AMARJ9OEVqP7P04POJSn-7" style="edgeStyle=none;rounded=0;orthogonalLoop=1;jettySize=auto;html=1;exitX=1;exitY=1;exitDx=0;exitDy=0;entryX=0;entryY=0;entryDx=0;entryDy=0;endArrow=none;endFill=0;labelBackgroundColor=#283618;strokeColor=#DDA15E;fontColor=#FEFAE0;strokeWidth=2;shadow=1;textOpacity=0;fillOpacity=0;strokeOpacity=0;" edge="1" parent="1" source="AMARJ9OEVqP7P04POJSn-8" target="AMARJ9OEVqP7P04POJSn-6">
          <mxGeometry relative="1" as="geometry" />
        </mxCell>
        <mxCell id="AMARJ9OEVqP7P04POJSn-8" value="1" style="ellipse;whiteSpace=wrap;html=1;aspect=fixed;fillColor=#BC6C25;strokeColor=#DDA15E;fontColor=#FEFAE0;strokeWidth=2;shadow=1;" vertex="1" parent="1">
          <mxGeometry x="260" y="80" width="40" height="40" as="geometry" />
        </mxCell>
        <mxCell id="AMARJ9OEVqP7P04POJSn-9" style="edgeStyle=none;rounded=0;orthogonalLoop=1;jettySize=auto;html=1;exitX=1;exitY=0;exitDx=0;exitDy=0;entryX=0;entryY=1;entryDx=0;entryDy=0;endArrow=none;endFill=0;labelBackgroundColor=#283618;strokeColor=#DDA15E;fontColor=#FEFAE0;strokeWidth=2;shadow=1;fillOpacity=100;strokeOpacity=100;" edge="1" parent="1" source="AMARJ9OEVqP7P04POJSn-10" target="AMARJ9OEVqP7P04POJSn-6">
          <mxGeometry relative="1" as="geometry" />
        </mxCell>
        <mxCell id="AMARJ9OEVqP7P04POJSn-10" value="2" style="ellipse;whiteSpace=wrap;html=1;aspect=fixed;fillColor=#BC6C25;strokeColor=#DDA15E;fontColor=#FEFAE0;strokeWidth=2;shadow=1;fillOpacity=100;strokeOpacity=100;" vertex="1" parent="1">
          <mxGeometry x="260" y="240" width="40" height="40" as="geometry" />
        </mxCell>
        <mxCell id="AMARJ9OEVqP7P04POJSn-11" style="edgeStyle=none;rounded=0;orthogonalLoop=1;jettySize=auto;html=1;exitX=1;exitY=1;exitDx=0;exitDy=0;entryX=0;entryY=0;entryDx=0;entryDy=0;endArrow=none;endFill=0;labelBackgroundColor=#283618;strokeColor=#DDA15E;fontColor=#FEFAE0;strokeWidth=2;shadow=1;textOpacity=0;fillOpacity=0;strokeOpacity=0;" edge="1" parent="1" source="AMARJ9OEVqP7P04POJSn-12" target="AMARJ9OEVqP7P04POJSn-17">
          <mxGeometry relative="1" as="geometry" />
        </mxCell>
        <mxCell id="AMARJ9OEVqP7P04POJSn-12" value="4" style="ellipse;whiteSpace=wrap;html=1;aspect=fixed;fillColor=#BC6C25;strokeColor=#DDA15E;fontColor=#FEFAE0;strokeWidth=2;shadow=1;fillOpacity=100;strokeOpacity=100;" vertex="1" parent="1">
          <mxGeometry x="450" y="100" width="40" height="40" as="geometry" />
        </mxCell>
        <mxCell id="AMARJ9OEVqP7P04POJSn-13" style="edgeStyle=none;rounded=0;orthogonalLoop=1;jettySize=auto;html=1;exitX=1;exitY=0;exitDx=0;exitDy=0;entryX=0;entryY=1;entryDx=0;entryDy=0;endArrow=none;endFill=0;labelBackgroundColor=#283618;strokeColor=#DDA15E;fontColor=#FEFAE0;strokeWidth=2;shadow=1;textOpacity=0;fillOpacity=0;strokeOpacity=0;" edge="1" parent="1" source="AMARJ9OEVqP7P04POJSn-14" target="AMARJ9OEVqP7P04POJSn-17">
          <mxGeometry relative="1" as="geometry" />
        </mxCell>
        <mxCell id="AMARJ9OEVqP7P04POJSn-14" value="5" style="ellipse;whiteSpace=wrap;html=1;aspect=fixed;fillColor=#BC6C25;strokeColor=#DDA15E;fontColor=#FEFAE0;strokeWidth=2;shadow=1;textOpacity=0;fillOpacity=0;strokeOpacity=0;" vertex="1" parent="1">
          <mxGeometry x="450" y="220" width="40" height="40" as="geometry" />
        </mxCell>
        <mxCell id="AMARJ9OEVqP7P04POJSn-15" style="edgeStyle=none;rounded=0;orthogonalLoop=1;jettySize=auto;html=1;exitX=1;exitY=0;exitDx=0;exitDy=0;entryX=0;entryY=1;entryDx=0;entryDy=0;endArrow=none;endFill=0;labelBackgroundColor=#283618;strokeColor=#DDA15E;fontColor=#FEFAE0;strokeWidth=2;shadow=1;textOpacity=0;fillOpacity=0;strokeOpacity=0;" edge="1" parent="1" source="AMARJ9OEVqP7P04POJSn-17" target="AMARJ9OEVqP7P04POJSn-20">
          <mxGeometry relative="1" as="geometry" />
        </mxCell>
        <mxCell id="AMARJ9OEVqP7P04POJSn-16" style="edgeStyle=none;rounded=0;orthogonalLoop=1;jettySize=auto;html=1;exitX=1;exitY=1;exitDx=0;exitDy=0;entryX=0;entryY=0;entryDx=0;entryDy=0;endArrow=none;endFill=0;labelBackgroundColor=#283618;strokeColor=#DDA15E;fontColor=#FEFAE0;strokeWidth=2;shadow=1;textOpacity=0;fillOpacity=0;strokeOpacity=0;" edge="1" parent="1" source="AMARJ9OEVqP7P04POJSn-17" target="AMARJ9OEVqP7P04POJSn-22">
          <mxGeometry relative="1" as="geometry" />
        </mxCell>
        <mxCell id="AMARJ9OEVqP7P04POJSn-17" value="6" style="ellipse;whiteSpace=wrap;html=1;aspect=fixed;fillColor=#BC6C25;strokeColor=#DDA15E;fontColor=#FEFAE0;strokeWidth=2;shadow=1;textOpacity=0;fillOpacity=0;strokeOpacity=0;" vertex="1" parent="1">
          <mxGeometry x="540" y="160" width="40" height="40" as="geometry" />
        </mxCell>
        <mxCell id="AMARJ9OEVqP7P04POJSn-18" value="9" style="ellipse;whiteSpace=wrap;html=1;aspect=fixed;fillColor=#BC6C25;strokeColor=#DDA15E;fontColor=#FEFAE0;strokeWidth=2;shadow=1;textOpacity=0;fillOpacity=0;strokeOpacity=0;" vertex="1" parent="1">
          <mxGeometry x="710" y="160" width="40" height="40" as="geometry" />
        </mxCell>
        <mxCell id="AMARJ9OEVqP7P04POJSn-19" style="edgeStyle=none;rounded=0;orthogonalLoop=1;jettySize=auto;html=1;exitX=1;exitY=1;exitDx=0;exitDy=0;entryX=0;entryY=0;entryDx=0;entryDy=0;endArrow=none;endFill=0;labelBackgroundColor=#283618;strokeColor=#DDA15E;fontColor=#FEFAE0;strokeWidth=2;shadow=1;textOpacity=0;fillOpacity=0;strokeOpacity=0;" edge="1" parent="1" source="AMARJ9OEVqP7P04POJSn-20" target="AMARJ9OEVqP7P04POJSn-18">
          <mxGeometry relative="1" as="geometry" />
        </mxCell>
        <mxCell id="AMARJ9OEVqP7P04POJSn-20" value="7" style="ellipse;whiteSpace=wrap;html=1;aspect=fixed;fillColor=#BC6C25;strokeColor=#DDA15E;fontColor=#FEFAE0;strokeWidth=2;shadow=1;textOpacity=0;fillOpacity=0;strokeOpacity=0;" vertex="1" parent="1">
          <mxGeometry x="630" y="80" width="40" height="40" as="geometry" />
        </mxCell>
        <mxCell id="AMARJ9OEVqP7P04POJSn-21" style="edgeStyle=none;rounded=0;orthogonalLoop=1;jettySize=auto;html=1;exitX=1;exitY=0;exitDx=0;exitDy=0;entryX=0;entryY=1;entryDx=0;entryDy=0;endArrow=none;endFill=0;labelBackgroundColor=#283618;strokeColor=#DDA15E;fontColor=#FEFAE0;strokeWidth=2;shadow=1;textOpacity=0;fillOpacity=0;strokeOpacity=0;" edge="1" parent="1" source="AMARJ9OEVqP7P04POJSn-22" target="AMARJ9OEVqP7P04POJSn-18">
          <mxGeometry relative="1" as="geometry" />
        </mxCell>
        <mxCell id="AMARJ9OEVqP7P04POJSn-22" value="8" style="ellipse;whiteSpace=wrap;html=1;aspect=fixed;fillColor=#BC6C25;strokeColor=#DDA15E;fontColor=#FEFAE0;strokeWidth=2;shadow=1;textOpacity=0;fillOpacity=0;strokeOpacity=0;" vertex="1" parent="1">
          <mxGeometry x="630" y="240" width="40" height="40" as="geometry" />
        </mxCell>
        <mxCell id="AMARJ9OEVqP7P04POJSn-23" value="1" style="text;html=1;align=center;verticalAlign=middle;resizable=0;points=[];autosize=1;strokeColor=none;fillColor=none;fontStyle=1;fontColor=#FEFAE0;strokeWidth=2;shadow=1;" vertex="1" parent="1">
          <mxGeometry x="220" y="120" width="20" height="20" as="geometry" />
        </mxCell>
        <mxCell id="AMARJ9OEVqP7P04POJSn-24" value="2" style="text;html=1;align=center;verticalAlign=middle;resizable=0;points=[];autosize=1;strokeColor=none;fillColor=none;fontStyle=1;fontColor=#FEFAE0;strokeWidth=2;shadow=1;fillOpacity=100;strokeOpacity=100;" vertex="1" parent="1">
          <mxGeometry x="220" y="220" width="20" height="20" as="geometry" />
        </mxCell>
        <mxCell id="AMARJ9OEVqP7P04POJSn-25" value="3" style="text;html=1;align=center;verticalAlign=middle;resizable=0;points=[];autosize=1;strokeColor=none;fillColor=none;fontStyle=1;fontColor=#FEFAE0;strokeWidth=2;shadow=1;textOpacity=0;fillOpacity=0;strokeOpacity=0;" vertex="1" parent="1">
          <mxGeometry x="330" y="120" width="20" height="20" as="geometry" />
        </mxCell>
        <mxCell id="AMARJ9OEVqP7P04POJSn-26" value="2" style="text;html=1;align=center;verticalAlign=middle;resizable=0;points=[];autosize=1;strokeColor=none;fillColor=none;fontStyle=1;fontColor=#FEFAE0;strokeWidth=2;shadow=1;fillOpacity=100;strokeOpacity=100;" vertex="1" parent="1">
          <mxGeometry x="325" y="220" width="20" height="20" as="geometry" />
        </mxCell>
        <mxCell id="AMARJ9OEVqP7P04POJSn-27" value="3" style="text;html=1;align=center;verticalAlign=middle;resizable=0;points=[];autosize=1;strokeColor=none;fillColor=none;fontStyle=1;fontColor=#FEFAE0;strokeWidth=2;shadow=1;textOpacity=0;fillOpacity=0;strokeOpacity=0;" vertex="1" parent="1">
          <mxGeometry x="580" y="120" width="20" height="20" as="geometry" />
        </mxCell>
        <mxCell id="AMARJ9OEVqP7P04POJSn-28" value="2" style="text;html=1;align=center;verticalAlign=middle;resizable=0;points=[];autosize=1;strokeColor=none;fillColor=none;fontStyle=1;fontColor=#FEFAE0;strokeWidth=2;shadow=1;textOpacity=0;fillOpacity=0;strokeOpacity=0;" vertex="1" parent="1">
          <mxGeometry x="680" y="120" width="20" height="20" as="geometry" />
        </mxCell>
        <mxCell id="AMARJ9OEVqP7P04POJSn-29" value="1" style="text;html=1;align=center;verticalAlign=middle;resizable=0;points=[];autosize=1;strokeColor=none;fillColor=none;fontStyle=1;fontColor=#FEFAE0;strokeWidth=2;shadow=1;textOpacity=0;fillOpacity=0;strokeOpacity=0;" vertex="1" parent="1">
          <mxGeometry x="590" y="220" width="20" height="20" as="geometry" />
        </mxCell>
        <mxCell id="AMARJ9OEVqP7P04POJSn-30" value="1" style="text;html=1;align=center;verticalAlign=middle;resizable=0;points=[];autosize=1;strokeColor=none;fillColor=none;fontStyle=1;fontColor=#FEFAE0;strokeWidth=2;shadow=1;textOpacity=0;fillOpacity=0;strokeOpacity=0;" vertex="1" parent="1">
          <mxGeometry x="680" y="220" width="20" height="20" as="geometry" />
        </mxCell>
        <mxCell id="AMARJ9OEVqP7P04POJSn-31" value="5" style="text;html=1;align=center;verticalAlign=middle;resizable=0;points=[];autosize=1;strokeColor=none;fillColor=none;fontStyle=1;fontColor=#FEFAE0;strokeWidth=2;shadow=1;fillOpacity=100;strokeOpacity=100;" vertex="1" parent="1">
          <mxGeometry x="400" y="130" width="20" height="20" as="geometry" />
        </mxCell>
        <mxCell id="AMARJ9OEVqP7P04POJSn-32" value="7" style="text;html=1;align=center;verticalAlign=middle;resizable=0;points=[];autosize=1;strokeColor=none;fillColor=none;fontStyle=1;fontColor=#FEFAE0;strokeWidth=2;shadow=1;textOpacity=0;fillOpacity=0;strokeOpacity=0;" vertex="1" parent="1">
          <mxGeometry x="510" y="130" width="20" height="20" as="geometry" />
        </mxCell>
        <mxCell id="AMARJ9OEVqP7P04POJSn-33" value="6" style="text;html=1;align=center;verticalAlign=middle;resizable=0;points=[];autosize=1;strokeColor=none;fillColor=none;fontStyle=1;fontColor=#FEFAE0;strokeWidth=2;shadow=1;textOpacity=0;fillOpacity=0;strokeOpacity=0;" vertex="1" parent="1">
          <mxGeometry x="410" y="210" width="20" height="20" as="geometry" />
        </mxCell>
        <mxCell id="AMARJ9OEVqP7P04POJSn-34" value="8" style="text;html=1;align=center;verticalAlign=middle;resizable=0;points=[];autosize=1;strokeColor=none;fillColor=none;fontStyle=1;fontColor=#FEFAE0;strokeWidth=2;shadow=1;textOpacity=0;fillOpacity=0;strokeOpacity=0;" vertex="1" parent="1">
          <mxGeometry x="510" y="210" width="20" height="20" as="geometry" />
        </mxCell>
        <mxCell id="AMARJ9OEVqP7P04POJSn-35" value="cstutorial.org" style="text;html=1;align=center;verticalAlign=middle;resizable=0;points=[];autosize=1;strokeColor=none;fillColor=none;fontColor=#FEFAE0;" vertex="1" parent="1">
          <mxGeometry x="640" y="280" width="100" height="20" as="geometry" />
        </mxCell>
      </root>
    </mxGraphModel>
  </diagram>
</mxfile>
